# xmcd
#
# Track frame offsets:
# 150
# 13575
# 32210
# 50100
# 68515
# 88206
# 106847
# 123368
# 142924
# 160884
#
# Disc length: 2366 seconds
#
#
# Revision: 0
# Processed by: cddbd v1.5.1PL2 Copyright (c) Steve Scherf et al.
# Submitted via: FreeRIP 2.944 
#
DISCID=80093c0a
DTITLE=The Robert Cray Band - Strong Persuader
DYEAR=1986
DGENRE=Blues
TTITLE0=Smoking Gun
TTITLE1=I Guess I Showed Her
TTITLE2=Right Next Door (Because Of Me)
TTITLE3=Nothin' But A Woman
TTITLE4=Still Around
TTITLE5=More Than I Can Stand
TTITLE6=Foul Play
TTITLE7=I Wonder
TTITLE8=Fantasized
TTITLE9=New Blood
EXTD=
EXTT0=
EXTT1=
EXTT2=
EXTT3=
EXTT4=
EXTT5=
EXTT6=
EXTT7=
EXTT8=
EXTT9=
PLAYORDER=
